<svg width="1034" height="499" viewBox="0 0 1034 499" fill="none" xmlns="http://www.w3.org/2000/svg">
<path d="M11.2368 490.454L24.3033 314.054C24.3033 314.054 24.5377 303.788 24.3033 291.889C24.0689 279.991 29.6666 263.19 29.6666 260.389C29.6666 257.589 24.7681 240.089 16.366 222.589C7.96769 205.089 4.46769 181.288 4.46769 160.289C4.46769 139.289 2.36612 132.289 4.46769 121.089C6.56926 109.89 6.56926 114.437 10.0694 103.589C13.5694 92.7416 19.5227 90.9877 29.6711 86.441C39.8194 81.8944 52.0694 69.9877 59.7727 93.7888C59.7727 93.7888 63.9719 104.64 70.9722 115.137C77.9722 125.633 84.6244 136.836 89.1716 145.937C93.7188 155.038 100.718 161.335 89.1716 169.738C77.625 178.136 58.7182 153.992 55.9177 149.437C53.1169 144.882 48.9177 136.137 46.1171 133.683C43.3163 131.23 34.2188 120.031 34.2188 120.031C34.2188 120.031 31.418 116.179 29.3204 112.683" stroke="black" stroke-width="5.6" stroke-miterlimit="10" stroke-linecap="round" stroke-linejoin="round"/>
<path d="M40.8384 127.96C40.8384 127.96 24.0726 129.585 17.772 127.96" stroke="black" stroke-width="5.6" stroke-miterlimit="10" stroke-linecap="round" stroke-linejoin="round"/>
<path d="M46.1192 79.4136V51.4371C46.1192 51.4371 46.4669 33.5854 53.1192 29.0388C59.7714 24.4919 73.4198 18.8905 78.6658 26.238C83.9119 33.5858 96.1658 64.738 98.6114 74.1835C101.057 83.6291 103.51 97.9841 105.959 106.035C108.404 114.09 112.611 129.137 126.959 126.336C141.307 123.535 143.76 114.082 142.357 99.0352C140.959 83.9886 136.412 67.8869 136.412 67.8869C136.412 67.8869 133.611 60.1875 132.912 53.8869C132.213 47.5863 130.459 6.28522 114.014 4.18746C97.5681 2.08589 87.4119 5.93354 85.3142 14.3358C85.3142 14.3358 83.9157 23.0819 91.2675 53.3555" stroke="black" stroke-width="5.6" stroke-miterlimit="10" stroke-linecap="round" stroke-linejoin="round"/>
<path d="M56.272 63.6832C56.272 63.6832 61.5259 72.3901 66.0726 79.4136C70.6194 86.4371 77.272 101.835 82.1742 114.437C87.0727 127.039 94.0726 130.285 102.475 127.961C110.873 125.636 110.736 120.379 108.354 113.203" stroke="black" stroke-width="5.6" stroke-miterlimit="10" stroke-linecap="round" stroke-linejoin="round"/>
<path d="M128.372 23.4528C128.372 23.4528 132.22 10.1366 139.22 9.78487C146.22 9.43319 154.274 9.78487 154.274 9.78487C154.274 9.78487 165.126 12.9333 167.22 19.5854C169.313 26.2377 170.021 36.0388 170.021 52.8394V94.4916C170.021 109.89 160.22 113.746 154.274 113.746C148.329 113.746 143.325 111.304 142.716 103.945" stroke="black" stroke-width="5.6" stroke-miterlimit="10" stroke-linecap="round" stroke-linejoin="round"/>
<path d="M61.172 81.536C61.172 81.536 62.5704 83.2821 65.7189 81.536" stroke="black" stroke-width="5.6" stroke-miterlimit="10" stroke-linecap="round" stroke-linejoin="round"/>
<path d="M70.972 115.136C70.972 115.136 77.1281 111.699 80.5267 110.265" stroke="black" stroke-width="5.6" stroke-miterlimit="10" stroke-linecap="round" stroke-linejoin="round"/>
<path d="M170.019 81.536L194.168 122.138C194.168 122.138 203.968 137.192 201.168 145.938C198.367 154.684 187.867 167.993 183.316 177.087C178.761 186.18 168.261 212.786 157.769 222.587C147.273 232.387 143.757 250.934 142.711 261.438C141.668 271.938 141.316 283.493 140.617 292.239C139.918 300.985 134.317 349.639 135.015 362.586C135.715 375.532 140.617 475.986 142.363 495.586" stroke="black" stroke-width="5.6" stroke-miterlimit="10" stroke-linecap="round" stroke-linejoin="round"/>
<path d="M142.714 119.454C142.714 119.454 146.1 125.52 159.636 123.653" stroke="black" stroke-width="5.6" stroke-miterlimit="10" stroke-linecap="round" stroke-linejoin="round"/>
<path d="M145.178 121.733C145.178 121.733 141.9 128.319 155.9 135.788L168.315 140.924" stroke="black" stroke-width="5.6" stroke-miterlimit="10" stroke-linecap="round" stroke-linejoin="round"/>
<path d="M308.77 199.979C285.07 199.979 270.37 210.479 256.57 224.279C256.57 224.279 255.37 225.779 252.67 227.279C245.47 208.679 229.57 199.979 206.47 199.979C183.07 199.979 168.37 210.479 154.57 224.279C154.57 224.279 137.77 241.979 120.07 221.279H112.27V358.379H154.57V229.679C166.27 217.679 176.77 213.179 187.87 213.179C207.37 213.179 212.77 227.579 214.27 239.279V358.379H257.17V254.879C257.17 251.279 257.17 247.679 256.57 244.379V229.679C268.57 217.679 278.77 213.179 290.17 213.179C316.87 213.179 317.17 240.179 317.17 250.979V358.379H359.47V254.879C359.47 217.079 341.17 199.979 308.77 199.979ZM543.241 350.579C529.441 350.579 529.441 342.479 529.441 328.679L530.041 273.479C528.841 232.679 503.641 204.179 469.741 199.679C445.441 196.379 427.141 205.079 414.241 217.679L420.241 225.479C425.641 221.579 431.041 219.779 435.841 219.179C439.741 218.579 443.341 218.879 445.741 219.179C446.941 219.179 447.841 219.479 449.041 219.779C449.341 219.779 449.641 220.079 449.641 220.079C454.741 221.579 457.441 225.479 457.441 230.279C457.441 255.179 378.241 263.879 378.241 313.979C378.241 343.079 401.641 362.279 438.241 362.279C460.741 362.279 477.541 354.479 489.241 346.079C492.541 353.279 499.741 360.779 516.541 361.079C532.441 361.079 545.041 354.479 548.941 351.779V349.979C547.141 350.279 545.641 350.579 543.241 350.579ZM461.341 346.079C438.241 346.079 423.841 331.679 423.841 309.779C423.841 272.879 466.441 258.179 466.441 233.279C466.441 222.479 458.341 216.479 447.841 215.279C452.641 207.479 457.741 202.379 465.841 203.579C485.641 206.279 487.141 229.379 487.441 266.879L489.841 267.479L487.441 266.879L487.141 338.879V339.179C480.241 343.079 471.541 346.079 461.341 346.079ZM653.374 203.879C652.774 222.479 657.574 249.179 641.074 288.479L631.774 309.479L593.074 220.979C588.574 210.479 578.374 203.879 566.974 203.879H539.974L609.274 362.279L601.174 380.879L600.874 381.479C598.174 386.579 594.574 392.279 590.374 396.779C590.074 397.079 589.774 397.379 589.474 397.679C589.474 397.679 589.474 397.679 589.174 397.979C578.074 409.679 562.774 415.079 544.174 394.379L540.874 426.179C545.074 426.179 548.974 425.879 552.874 425.579C557.374 424.979 561.874 423.779 566.374 422.279C576.274 418.979 585.274 413.279 592.774 404.279C597.874 398.279 602.374 391.379 605.974 382.379L645.874 290.579C662.974 250.979 672.274 228.479 685.174 203.879H653.374ZM779.345 266.879C779.045 266.879 779.045 266.579 779.045 266.579C779.045 265.979 778.745 265.379 778.446 264.779C777.545 259.379 782.646 253.379 786.245 249.779L787.446 248.579C788.045 247.979 788.645 247.679 788.946 247.079C809.046 229.979 825.546 217.979 846.846 204.479V203.879H805.446C804.245 218.279 802.146 228.179 779.645 247.979L748.445 275.579V179.879C748.445 168.179 743.645 157.679 735.845 149.879C728.045 142.379 717.545 137.579 705.845 137.579V358.679H748.445V282.779L769.145 264.779V265.079V265.379C769.145 290.279 811.746 304.979 811.746 341.879C811.746 348.179 810.545 353.879 808.145 358.679H855.845C857.045 354.779 857.645 350.279 857.645 345.779C857.645 299.279 788.045 288.479 779.345 266.879ZM925.469 301.979C925.769 300.779 926.369 299.579 926.969 298.679C927.269 298.379 927.269 298.079 927.569 298.079C929.369 296.279 931.769 295.079 934.769 294.179C955.469 288.179 1001.97 299.879 1018.17 268.979C1029.57 247.079 1019.37 223.379 992.069 208.979C989.669 207.779 987.269 206.579 984.869 205.679C974.369 201.479 964.469 199.979 955.769 200.579C955.169 200.279 954.269 200.279 953.669 200.279C947.069 200.279 940.469 201.179 934.169 202.679C899.069 210.479 872.969 240.479 872.969 283.679C872.969 331.979 905.369 362.279 946.769 362.279C976.769 362.279 998.369 346.379 1014.87 321.179L1011.27 319.379C997.769 337.679 980.969 345.179 965.669 345.179C948.569 345.179 935.069 336.779 926.969 319.679C926.969 319.379 926.669 319.379 926.669 319.379C926.669 318.779 926.369 318.479 926.369 317.879C925.769 316.379 925.469 314.879 925.169 313.679C923.969 308.879 924.269 305.279 925.169 302.579C925.169 302.279 925.169 301.979 925.469 301.979ZM921.269 302.579C920.969 301.379 920.669 300.179 920.369 298.979C920.369 297.779 920.069 296.579 919.769 295.379C918.869 288.479 918.269 281.279 918.269 273.179C918.269 237.779 928.469 214.379 945.569 206.879C949.169 205.379 953.369 204.779 957.569 204.779C957.569 204.779 957.869 204.779 958.469 204.779C958.769 204.779 959.069 204.779 959.669 204.779C959.669 204.779 959.969 204.779 960.269 204.779C967.769 205.679 989.969 210.779 986.069 241.679C985.769 245.579 984.269 249.779 982.169 253.979C972.869 271.679 953.669 275.579 938.669 281.279C938.069 281.579 937.769 281.579 937.169 281.879C936.569 282.179 936.269 282.179 935.669 282.479C921.269 289.079 921.269 301.079 921.269 302.579Z" fill="black"/>
</svg>
